<?xml version="1.0" encoding="utf-8"?>
<svg xmlns="http://www.w3.org/2000/svg" version="1.1" viewBox="-5.0 -10.0 110.0 135.0">
  <path d="M 49.886 4.675 C 22.265 4.675 -0.114 27.054 -0.114 54.675 C -0.114 82.296 22.265 104.675 49.886 104.675 C 77.507 104.675 99.886 82.284 99.886 54.675 C 99.886 27.066 77.495 4.675 49.886 4.675 Z M 50.222 93.073 L 4.898 63.19 C 4.382 60.432 4.097 57.58 4.097 54.674 C 4.097 51.768 4.371 48.916 4.898 46.159 L 50.222 16.264 L 94.781 45.655 C 95.359 48.569 95.675 51.58 95.675 54.674 C 95.675 57.768 95.359 60.768 94.781 63.686 L 50.222 93.077 L 50.222 93.073 Z"/>
  <path d="M 26.769 48.601 C 26.265 50.55 25.999 52.57 25.999 54.675 C 25.999 68.054 36.831 78.898 50.222 78.898 C 61.242 78.898 70.55 71.531 73.476 61.457 C 66.867 56.246 59.203 52.406 51.011 50.215 C 43.105 48.09 34.831 47.551 26.769 48.606 L 26.769 48.601 Z M 28.706 50.519 C 28.706 49.941 29.179 49.468 29.757 49.468 C 30.335 49.468 30.808 49.941 30.808 50.519 C 30.808 51.097 30.343 51.57 29.757 51.57 C 29.167 51.57 28.706 51.105 28.706 50.519 Z M 30.179 64.328 C 29.738 64.328 29.39 63.98 29.39 63.539 C 29.39 63.097 29.738 62.75 30.179 62.75 C 30.621 62.75 30.968 63.109 30.968 63.539 C 30.968 63.968 30.609 64.328 30.179 64.328 Z M 32.128 61.695 C 31.55 61.695 31.078 61.222 31.078 60.644 C 31.078 60.066 31.55 59.593 32.128 59.593 C 32.706 59.593 33.179 60.066 33.179 60.644 C 33.179 61.222 32.714 61.695 32.128 61.695 Z M 37.222 64.316 C 36.644 64.316 36.171 63.843 36.171 63.265 C 36.171 62.687 36.644 62.215 37.222 62.215 C 37.8 62.215 38.273 62.687 38.273 63.265 C 38.273 63.843 37.808 64.316 37.222 64.316 Z M 40.128 69.117 C 39.55 69.117 39.078 68.644 39.078 68.066 C 39.078 67.488 39.55 67.015 40.128 67.015 C 40.706 67.015 41.179 67.48 41.179 68.066 C 41.179 68.656 40.714 69.117 40.128 69.117 Z M 40.624 56.781 C 40.046 56.781 39.574 56.308 39.574 55.73 C 39.574 55.152 40.046 54.679 40.624 54.679 C 41.203 54.679 41.675 55.152 41.675 55.73 C 41.675 56.308 41.203 56.781 40.624 56.781 Z M 50.222 66.949 C 49.632 66.949 49.171 66.476 49.171 65.898 C 49.171 65.32 49.636 64.847 50.222 64.847 C 50.812 64.847 51.273 65.312 51.273 65.898 C 51.273 66.488 50.8 66.949 50.222 66.949 Z M 69.738 65.633 C 69.738 66.062 69.391 66.422 68.949 66.422 C 68.508 66.422 68.16 66.062 68.16 65.633 C 68.16 65.203 68.519 64.843 68.949 64.843 C 69.379 64.843 69.738 65.191 69.738 65.633 Z M 67.633 61.687 C 68.223 61.687 68.683 62.16 68.683 62.738 C 68.683 63.316 68.219 63.789 67.633 63.789 C 67.043 63.789 66.582 63.316 66.582 62.738 C 66.582 62.16 67.055 61.687 67.633 61.687 Z M 67.371 66.949 C 67.812 66.949 68.16 67.297 68.16 67.738 C 68.16 68.179 67.812 68.527 67.371 68.527 C 66.93 68.527 66.582 68.168 66.582 67.738 C 66.582 67.308 66.941 66.949 67.371 66.949 Z M 62.633 69.937 C 63.211 69.937 63.683 70.41 63.683 70.988 C 63.683 71.566 63.211 72.039 62.633 72.039 C 62.055 72.039 61.582 71.574 61.582 70.988 C 61.582 70.398 62.055 69.937 62.633 69.937 Z M 58.695 71.527 C 58.695 72.117 58.23 72.578 57.644 72.578 C 57.055 72.578 56.594 72.113 56.594 71.527 C 56.594 70.937 57.066 70.476 57.644 70.476 C 58.222 70.476 58.695 70.949 58.695 71.527 Z M 57.043 53.898 C 57.473 53.898 57.832 54.246 57.832 54.687 C 57.832 55.129 57.473 55.476 57.043 55.476 C 56.613 55.476 56.254 55.117 56.254 54.687 C 56.254 54.257 56.613 53.898 57.043 53.898 Z M 53.148 60.105 C 53.726 60.105 54.199 60.578 54.199 61.156 C 54.199 61.734 53.726 62.207 53.148 62.207 C 52.57 62.207 52.098 61.734 52.098 61.156 C 52.098 60.578 52.57 60.105 53.148 60.105 Z M 50.223 59.824 C 49.633 59.824 49.172 59.351 49.172 58.773 C 49.172 58.195 49.637 57.722 50.223 57.722 C 50.812 57.722 51.273 58.195 51.273 58.773 C 51.273 59.351 50.801 59.824 50.223 59.824 Z"/>
  <path d="M 50.222 30.445 C 40.601 30.445 32.296 36.066 28.378 44.183 C 36.304 43.413 44.366 44.077 52.105 46.152 C 60.136 48.3 67.695 51.941 74.347 56.816 C 74.409 56.12 74.441 55.405 74.441 54.679 C 74.441 41.3 63.597 30.449 50.218 30.449 L 50.222 30.445 Z M 58.097 46.918 C 57.519 46.918 57.046 46.453 57.046 45.867 C 57.046 45.277 57.519 44.816 58.097 44.816 C 58.675 44.816 59.148 45.289 59.148 45.867 C 59.148 46.445 58.675 46.918 58.097 46.918 Z"/>
</svg>