<?xml version="1.0" encoding="utf-8"?>
<svg xmlns="http://www.w3.org/2000/svg" version="1.1" x="0px" y="0px" viewBox="0 0 1024 1280" style="enable-background:new 0 0 1024 1024;">
  <path d="M 861.303 545.181 L 861.09 545.181 L 861.09 495.551 L 803.236 495.551 C 785.017 495.551 770.101 480.322 770.101 461.478 C 770.101 442.743 785.017 427.405 803.236 427.405 L 861.09 427.405 L 861.09 385.992 C 861.09 358.493 839.355 336.143 812.612 336.143 L 653.116 336.143 L 653.116 356.192 L 415.523 356.192 L 415.523 336.033 L 256.133 336.033 C 229.391 336.033 207.656 358.383 207.656 385.882 L 207.656 427.405 L 265.509 427.405 C 283.728 427.405 298.644 442.743 298.644 461.478 C 298.644 480.212 283.835 495.551 265.509 495.551 L 207.656 495.551 L 207.656 599.303 L 172.496 599.303 L 172.496 569.831 L 47.84 569.831 L 47.84 610.697 L 151.188 610.697 L 151.188 632.609 L 47.84 632.609 L 47.84 671.283 L 151.188 671.283 L 151.188 693.195 L 47.84 693.195 L 47.84 734.17 L 172.496 734.17 L 172.496 704.698 L 207.656 704.698 L 207.656 808.451 L 265.509 808.451 C 283.728 808.451 298.644 823.679 298.644 842.523 C 298.644 861.258 283.835 876.596 265.509 876.596 L 207.656 876.596 L 207.656 918.009 C 207.656 945.509 229.391 967.856 256.133 967.856 L 415.523 967.856 L 415.523 947.809 L 653.116 947.809 L 653.116 967.966 L 812.612 967.966 C 839.355 967.966 861.09 945.618 861.09 918.119 L 861.09 876.596 L 803.236 876.596 C 785.017 876.596 770.101 861.258 770.101 842.523 C 770.101 823.789 785.017 808.451 803.236 808.451 L 861.09 808.451 L 861.09 758.82 L 861.303 758.82 C 888.258 758.82 910.313 736.251 910.313 708.423 L 910.313 595.578 C 910.313 567.75 888.365 545.181 861.303 545.181 Z M 653.116 869.256 L 415.523 869.256 L 415.523 836.388 L 653.116 836.388 L 653.116 869.256 Z M 653.116 768.9 L 415.523 768.9 L 415.523 736.032 L 653.116 736.032 L 653.116 768.9 Z M 653.116 668.434 L 415.523 668.434 L 415.523 635.567 L 653.116 635.567 L 653.116 668.434 Z M 653.116 567.969 L 415.523 567.969 L 415.523 535.101 L 653.116 535.101 L 653.116 567.969 Z M 653.116 467.613 L 415.523 467.613 L 415.523 434.745 L 653.116 434.745 L 653.116 467.613 Z" style=""/>
</svg>