<?xml version="1.0" encoding="utf-8"?>
<svg xmlns="http://www.w3.org/2000/svg" version="1.1" x="0px" y="0px" viewBox="0 0 100 125" enable-background="new 0 0 100 100">
  <g transform="matrix(1, 0, 0, 1, -0.105574, 11.507602)">
    <path fill="none" d="M53.346,33.237c-1.132-0.214-2.259-0.318-3.371-0.318c-4.524,0-8.791,1.742-12.054,4.999   c-4.06,4.053-5.773,9.663-4.702,15.393c1.239,6.627,6.73,12.154,13.355,13.439c5.759,1.117,11.401-0.579,15.487-4.656   c4.087-4.076,5.798-9.715,4.697-15.473C65.489,39.992,59.974,34.488,53.346,33.237z M50,60.331   c-5.698,0-10.334-4.634-10.334-10.329c0-5.696,4.636-10.33,10.334-10.33c5.693,0,10.324,4.634,10.324,10.33   C60.324,55.697,55.693,60.331,50,60.331z"/>
    <path fill="none" d="M50,25.836c-13.322,0-24.16,10.841-24.16,24.166c0,7.311,3.259,14.152,8.941,18.767   c5.679,4.613,13.135,6.377,20.453,4.849c9.056-1.897,16.434-9.253,18.36-18.306c1.559-7.329-0.194-14.803-4.81-20.504   C64.167,29.106,57.321,25.836,50,25.836z M64.111,64.149c-3.781,3.771-8.886,5.828-14.176,5.828c-1.299,0-2.609-0.124-3.914-0.377   c-7.889-1.531-14.181-7.863-15.656-15.756c-1.25-6.686,0.757-13.241,5.506-17.981c4.754-4.747,11.322-6.746,18.014-5.478   c7.895,1.49,14.214,7.795,15.724,15.689C70.876,52.694,68.821,59.452,64.111,64.149z"/>
    <circle fill="none" cx="49.998" cy="50.002" r="7.426"/>
    <path fill="none" d="M80.541,50.002c0-0.505,0.262-0.973,0.693-1.238l10.201-6.251c-0.67-3.741-1.849-7.369-3.513-10.812L76,32.635   c-0.505,0.032-0.991-0.186-1.288-0.594c-0.297-0.408-0.36-0.942-0.166-1.408l4.575-11.038c-2.762-2.632-5.849-4.877-9.198-6.688   l-9.098,7.768c-0.384,0.328-0.912,0.431-1.391,0.277c-0.48-0.156-0.845-0.551-0.963-1.041L55.675,8.277   C51.909,7.779,48.13,7.778,44.32,8.278l-2.791,11.631c-0.118,0.491-0.482,0.886-0.963,1.042c-0.48,0.154-1.007,0.051-1.392-0.277   l-9.097-7.768c-3.351,1.812-6.437,4.057-9.194,6.688l4.566,11.039c0.193,0.467,0.129,1-0.167,1.408   c-0.296,0.407-0.782,0.626-1.288,0.594l-11.918-0.934c-1.661,3.421-2.839,7.049-3.512,10.813l10.191,6.251   c0.43,0.264,0.693,0.732,0.693,1.237c0,0.506-0.263,0.973-0.693,1.238L8.565,57.485c0.672,3.76,1.851,7.391,3.512,10.817   l11.917-0.935c0.506-0.033,0.991,0.186,1.288,0.594c0.297,0.408,0.36,0.941,0.167,1.408l-4.567,11.039   c2.759,2.638,5.844,4.88,9.193,6.685l9.099-7.765c0.384-0.328,0.912-0.431,1.391-0.277c0.48,0.156,0.845,0.551,0.963,1.041   l2.792,11.626c3.737,0.503,7.658,0.5,11.354,0.001l2.796-11.627c0.118-0.491,0.483-0.886,0.963-1.041   c0.48-0.154,1.007-0.051,1.391,0.277l9.099,7.764c3.347-1.802,6.433-4.046,9.197-6.684L74.546,69.37   c-0.193-0.467-0.13-1,0.166-1.408c0.297-0.409,0.783-0.628,1.288-0.594l11.921,0.935c1.665-3.448,2.844-7.079,3.514-10.817   L81.234,51.24C80.803,50.976,80.541,50.508,80.541,50.002z M76.434,55.917c-2.161,10.159-10.441,18.414-20.605,20.542   c-1.927,0.404-3.863,0.602-5.779,0.602c-6.219,0-12.237-2.089-17.1-6.039c-6.364-5.17-10.014-12.831-10.014-21.02   c0-14.926,12.141-27.069,27.063-27.069c8.201,0,15.87,3.662,21.04,10.049C76.21,39.367,78.176,47.726,76.434,55.917z"/>
    <path d="M50,39.672c-5.698,0-10.334,4.634-10.334,10.33c0,5.695,4.636,10.329,10.334,10.329c5.693,0,10.324-4.634,10.324-10.329   C60.324,44.306,55.693,39.672,50,39.672z M50,57.427c-4.097,0-7.431-3.331-7.431-7.425c0-4.095,3.334-7.426,7.431-7.426   c4.092,0,7.421,3.331,7.421,7.426C57.421,54.096,54.092,57.427,50,57.427z"/>
    <path d="M53.885,30.385c-6.692-1.268-13.26,0.731-18.014,5.478c-4.749,4.741-6.756,11.295-5.506,17.981   c1.475,7.893,7.767,14.225,15.656,15.756c1.305,0.253,2.615,0.377,3.914,0.377c5.291,0,10.395-2.057,14.176-5.828   c4.709-4.697,6.764-11.454,5.498-18.075C68.099,38.18,61.779,31.875,53.885,30.385z M62.061,62.093   c-4.086,4.077-9.728,5.773-15.487,4.656c-6.625-1.285-12.116-6.812-13.355-13.439c-1.071-5.73,0.643-11.341,4.702-15.393   c3.263-3.257,7.529-4.999,12.054-4.999c1.112,0,2.239,0.105,3.371,0.318c6.628,1.251,12.143,6.754,13.412,13.383   C67.859,52.378,66.147,58.017,62.061,62.093z"/>
    <path d="M50,22.933c-14.923,0-27.063,12.143-27.063,27.069c0,8.189,3.65,15.851,10.014,21.02c4.863,3.95,10.881,6.039,17.1,6.039   c1.916,0,3.852-0.198,5.779-0.602c10.163-2.128,18.444-10.384,20.605-20.542c1.742-8.191-0.224-16.55-5.394-22.935   C65.87,26.595,58.201,22.933,50,22.933z M73.594,55.312c-1.925,9.053-9.304,16.409-18.36,18.306   c-7.318,1.528-14.774-0.236-20.453-4.849c-5.682-4.616-8.941-11.456-8.941-18.767c0-13.325,10.838-24.166,24.16-24.166   c7.321,0,14.167,3.27,18.784,8.973C73.4,40.51,75.153,47.983,73.594,55.312z"/>
    <path d="M93.786,55.52l-9.014-5.519l9.015-5.523c0.499-0.306,0.766-0.882,0.676-1.461c-0.729-4.698-2.205-9.24-4.385-13.5   c-0.267-0.523-0.817-0.833-1.406-0.785l-10.537,0.825l4.045-9.758c0.225-0.543,0.1-1.169-0.316-1.584   c-3.378-3.366-7.238-6.173-11.473-8.342c-0.524-0.269-1.156-0.194-1.604,0.188l-8.045,6.869L58.268,6.64   c-0.138-0.573-0.608-1.006-1.19-1.095c-4.681-0.724-9.422-0.728-14.16,0c-0.583,0.089-1.054,0.523-1.191,1.096l-2.469,10.287   l-8.044-6.868c-0.447-0.382-1.08-0.457-1.604-0.188c-4.239,2.17-8.098,4.977-11.469,8.343c-0.416,0.415-0.541,1.04-0.316,1.582   l4.037,9.759l-10.533-0.825c-0.585-0.034-1.137,0.263-1.404,0.783c-2.177,4.231-3.652,8.774-4.387,13.503   c-0.09,0.578,0.177,1.155,0.676,1.46l9.007,5.524L6.214,55.52c-0.499,0.306-0.766,0.882-0.676,1.461   c0.734,4.725,2.21,9.27,4.387,13.508c0.267,0.521,0.824,0.821,1.405,0.783l10.533-0.826l-4.037,9.759   c-0.224,0.542-0.1,1.166,0.315,1.581c3.375,3.376,7.235,6.182,11.472,8.341c0.525,0.266,1.154,0.192,1.601-0.19l8.045-6.864   l2.468,10.279c0.137,0.571,0.604,1.003,1.184,1.094C45.227,94.814,47.612,95,50,95c2.401,0,4.785-0.186,7.085-0.553   c0.579-0.093,1.046-0.525,1.183-1.094l2.473-10.28l8.045,6.865c0.447,0.382,1.079,0.456,1.601,0.19   c4.233-2.158,8.095-4.964,11.477-8.34c0.416-0.415,0.54-1.041,0.315-1.583l-4.045-9.758l10.537,0.826   c0.589,0.037,1.139-0.265,1.406-0.786c2.181-4.267,3.657-8.811,4.385-13.505C94.552,56.402,94.285,55.826,93.786,55.52z    M87.921,68.302L76,67.368c-0.505-0.033-0.991,0.185-1.288,0.594c-0.297,0.408-0.36,0.941-0.166,1.408l4.576,11.039   c-2.764,2.638-5.851,4.881-9.197,6.684l-9.099-7.764c-0.384-0.328-0.911-0.431-1.391-0.277c-0.48,0.156-0.845,0.55-0.963,1.041   l-2.796,11.627c-3.696,0.499-7.617,0.502-11.354-0.001l-2.792-11.626c-0.118-0.49-0.482-0.886-0.963-1.041   c-0.48-0.154-1.007-0.051-1.391,0.277l-9.099,7.765c-3.349-1.804-6.434-4.047-9.193-6.685l4.567-11.039   c0.193-0.467,0.129-1-0.167-1.408c-0.296-0.407-0.782-0.627-1.288-0.594l-11.917,0.935c-1.661-3.426-2.84-7.057-3.512-10.817   l10.191-6.245c0.43-0.265,0.693-0.732,0.693-1.238c0-0.505-0.262-0.973-0.693-1.237L8.565,42.514   c0.673-3.763,1.851-7.391,3.512-10.813l11.918,0.934c0.506,0.032,0.991-0.186,1.288-0.594c0.297-0.408,0.36-0.941,0.167-1.408   l-4.566-11.039c2.757-2.631,5.842-4.877,9.194-6.688l9.097,7.768c0.384,0.328,0.912,0.431,1.392,0.277   c0.48-0.156,0.845-0.551,0.963-1.042L44.32,8.278c3.811-0.5,7.589-0.499,11.356-0.001l2.796,11.633   c0.118,0.49,0.483,0.886,0.963,1.041c0.48,0.154,1.007,0.051,1.391-0.277l9.098-7.768c3.349,1.812,6.436,4.056,9.198,6.688   l-4.575,11.038c-0.193,0.466-0.13,1,0.166,1.408c0.297,0.408,0.783,0.627,1.288,0.594l11.921-0.934   c1.665,3.443,2.844,7.071,3.513,10.812l-10.201,6.251c-0.431,0.265-0.693,0.733-0.693,1.238c0,0.506,0.263,0.974,0.694,1.238   l10.201,6.245C90.765,61.224,89.586,64.855,87.921,68.302z"/>
  </g>
</svg>