<?xml version="1.0" encoding="utf-8"?>
<svg xmlns="http://www.w3.org/2000/svg" viewBox="0 0 24 30" x="0px" y="0px">
  <path d="M 8.971 11.572 L 5.061 7.662 C 6.771 6.172 8.951 5.222 11.351 5.052 L 11.351 10.592 C 10.461 10.722 9.661 11.062 8.971 11.572 Z M 7.911 12.632 L 4.001 8.722 C 2.511 10.432 1.561 12.612 1.391 15.012 L 6.931 15.012 C 7.061 14.122 7.401 13.322 7.911 12.632 Z M 17.271 15.012 L 22.811 15.012 C 22.641 12.612 21.691 10.432 20.201 8.722 L 16.291 12.632 C 16.801 13.322 17.151 14.122 17.271 15.012 Z M 17.271 16.512 C 17.111 17.632 16.621 18.662 15.811 19.472 C 15.671 19.612 15.591 19.802 15.591 20.002 C 15.591 20.202 15.671 20.392 15.811 20.532 L 18.641 23.362 C 18.791 23.512 18.981 23.582 19.171 23.582 C 19.361 23.582 19.551 23.512 19.701 23.362 C 21.551 21.512 22.641 19.102 22.811 16.512 L 17.271 16.512 Z M 8.601 20.002 C 8.601 19.802 8.521 19.612 8.381 19.472 C 7.571 18.672 7.071 17.632 6.921 16.512 L 1.391 16.512 C 1.571 19.102 2.651 21.512 4.501 23.362 C 4.791 23.652 5.271 23.652 5.561 23.362 L 8.391 20.532 C 8.531 20.392 8.611 20.202 8.611 20.002 L 8.601 20.002 Z M 19.131 7.662 C 17.421 6.172 15.241 5.222 12.841 5.052 L 12.841 10.592 C 13.731 10.722 14.531 11.062 15.221 11.572 L 19.131 7.662 Z M 15.091 23.012 L 9.091 23.012 C 8.681 23.012 8.341 23.352 8.341 23.762 C 8.341 24.172 8.681 24.512 9.091 24.512 L 15.091 24.512 C 15.501 24.512 15.841 24.172 15.841 23.762 C 15.841 23.352 15.501 23.012 15.091 23.012 Z M 14.371 13.062 C 13.991 12.912 13.551 13.092 13.401 13.482 L 11.981 17.022 C 11.071 17.082 10.341 17.832 10.341 18.762 C 10.341 19.692 11.131 20.512 12.091 20.512 C 13.051 20.512 13.841 19.722 13.841 18.762 C 13.841 18.302 13.661 17.892 13.371 17.582 L 14.791 14.042 C 14.941 13.662 14.761 13.222 14.371 13.072 L 14.371 13.062 Z"/>
  <text x="0" y="39" fill="#000000" font-size="5px" font-weight="bold" font-family="'Helvetica Neue', Helvetica, Arial-Unicode, Arial, Sans-serif" style="white-space: pre;">Created by Arkinasi</text>
  <text x="0" y="44" fill="#000000" font-size="5px" font-weight="bold" font-family="'Helvetica Neue', Helvetica, Arial-Unicode, Arial, Sans-serif" style="white-space: pre;">from the Noun Project</text>
</svg>