<?xml version="1.0" encoding="utf-8"?>
<svg xmlns="http://www.w3.org/2000/svg" version="1.1" x="0px" y="0px" viewBox="0 0 100 125">
  <g transform="matrix(1, 0, 0, 1, 0.211149, -936.631592)">
    <path style="opacity:1;fill:#000000;stroke:none" d="M 50 8 C 26.804041 8 8 26.80402 8 50 C 8 73.1959 26.804041 92 50 92 C 73.195959 92 92 73.1959 92 50 C 92 26.80402 73.195959 8 50 8 z M 48 16.0625 L 48 22 A 2.0001999 2.0001999 0 1 0 52 22 L 52 16.0625 C 59.873648 16.519931 67.025206 19.675904 72.5625 24.59375 L 68.59375 28.5625 A 2.0001999 2.0001999 0 1 0 71.40625 31.40625 L 75.40625 27.40625 C 80.332918 32.945937 83.479593 40.118153 83.9375 48 L 78 48 C 76.943271 48 76.003 49.0602 76 50 C 75.996969 50.9458 76.943271 52 78 52 L 83.9375 52 C 83.550159 58.709972 81.223862 64.889413 77.5 70 C 71.686914 62.022152 62.473831 56.673249 52 56.0625 L 52 36 C 52 34.865186 50.942809 34 50 34 C 49.057191 34 48 35.011332 48 36 L 48 56.0625 C 37.526169 56.673249 28.313086 62.022152 22.5 70 C 18.776138 64.889413 16.449841 58.709972 16.0625 52 L 22 52 C 23.056729 52 24.003031 50.9458 24 50 C 23.997 49.0602 23.056729 48 22 48 L 16.0625 48 C 16.520407 40.118153 19.667082 32.945937 24.59375 27.40625 L 28.59375 31.40625 A 2.0001999 2.0001999 0 1 0 31.40625 28.5625 L 27.4375 24.59375 C 32.974794 19.675904 40.126352 16.519931 48 16.0625 z " transform="translate(0,952.36218)"/>
  </g>
</svg>