<?xml version="1.0" encoding="utf-8"?>
<svg xmlns="http://www.w3.org/2000/svg" viewBox="0 0 64 80" x="0px" y="0px">
  <path d="M 9.757 55.997 L 53.837 55.997 L 31.797 17.817 L 9.757 55.997 Z M 38.617 39.527 L 30.437 52.257 L 32.257 44.077 L 24.987 44.077 L 30.437 32.257 L 35.887 32.257 L 32.247 39.527 L 38.607 39.527 L 38.617 39.527 Z"/>
  <path d="M 59.297 55.447 L 34.997 13.367 C 33.577 10.907 30.017 10.907 28.597 13.367 L 4.297 55.447 C 2.877 57.907 4.657 60.997 7.497 60.997 L 56.087 60.997 C 58.937 60.997 60.707 57.917 59.287 55.447 L 59.297 55.447 Z M 56.437 57.497 C 56.257 57.807 55.927 57.997 55.567 57.997 L 8.027 57.997 C 7.667 57.997 7.337 57.807 7.157 57.497 C 6.977 57.187 6.977 56.807 7.157 56.497 L 30.927 15.317 C 31.287 14.697 32.307 14.697 32.657 15.317 L 56.427 56.497 C 56.607 56.807 56.607 57.187 56.427 57.497 L 56.437 57.497 Z"/>
</svg>